<svg width="291" height="71" viewBox="0 0 291 71" fill="none" xmlns="http://www.w3.org/2000/svg">
<path d="M2.25 46V11.0909H26.7955V18.7273H11.7273V24.7273H25.2955V32.3636H11.7273V46H2.25ZM39.7585 11.0909V46H30.2812V11.0909H39.7585ZM76.8409 24.1818H67.2273C67.1591 23.3864 66.9773 22.6648 66.6818 22.017C66.3977 21.3693 66 20.8125 65.4886 20.3466C64.9886 19.8693 64.3807 19.5057 63.6648 19.2557C62.9489 18.9943 62.1364 18.8636 61.2273 18.8636C59.6364 18.8636 58.2898 19.25 57.1875 20.0227C56.0966 20.7955 55.267 21.9034 54.6989 23.3466C54.142 24.7898 53.8636 26.5227 53.8636 28.5455C53.8636 30.6818 54.1477 32.4716 54.7159 33.9148C55.2955 35.3466 56.1307 36.4261 57.2216 37.1534C58.3125 37.8693 59.625 38.2273 61.1591 38.2273C62.0341 38.2273 62.8182 38.1193 63.5114 37.9034C64.2045 37.6761 64.8068 37.3523 65.3182 36.9318C65.8295 36.5114 66.2443 36.0057 66.5625 35.4148C66.892 34.8125 67.1136 34.1364 67.2273 33.3864L76.8409 33.4545C76.7273 34.9318 76.3125 36.4375 75.5966 37.9716C74.8807 39.4943 73.8636 40.9034 72.5455 42.1989C71.2386 43.483 69.6193 44.517 67.6875 45.3011C65.7557 46.0852 63.5114 46.4773 60.9545 46.4773C57.75 46.4773 54.875 45.7898 52.3295 44.4148C49.7955 43.0398 47.7898 41.017 46.3125 38.3466C44.8466 35.6761 44.1136 32.4091 44.1136 28.5455C44.1136 24.6591 44.8636 21.3864 46.3636 18.7273C47.8636 16.0568 49.8864 14.0398 52.4318 12.6761C54.9773 11.3011 57.8182 10.6136 60.9545 10.6136C63.1591 10.6136 65.1875 10.9148 67.0398 11.517C68.892 12.1193 70.517 13 71.9148 14.1591C73.3125 15.3068 74.4375 16.7216 75.2898 18.4034C76.142 20.0852 76.6591 22.0114 76.8409 24.1818ZM80.1861 18.7273V11.0909H110.527V18.7273H100.027V46H90.6861V18.7273H80.1861ZM123.571 11.0909V46H114.094V11.0909H123.571ZM161.881 28.5455C161.881 32.4318 161.125 35.7102 159.614 38.3807C158.102 41.0398 156.063 43.0568 153.494 44.4318C150.926 45.7955 148.063 46.4773 144.903 46.4773C141.722 46.4773 138.847 45.7898 136.278 44.4148C133.722 43.0284 131.688 41.0057 130.176 38.3466C128.676 35.6761 127.926 32.4091 127.926 28.5455C127.926 24.6591 128.676 21.3864 130.176 18.7273C131.688 16.0568 133.722 14.0398 136.278 12.6761C138.847 11.3011 141.722 10.6136 144.903 10.6136C148.063 10.6136 150.926 11.3011 153.494 12.6761C156.063 14.0398 158.102 16.0568 159.614 18.7273C161.125 21.3864 161.881 24.6591 161.881 28.5455ZM152.131 28.5455C152.131 26.4545 151.852 24.6932 151.295 23.2614C150.75 21.8182 149.938 20.7273 148.858 19.9886C147.79 19.2386 146.472 18.8636 144.903 18.8636C143.335 18.8636 142.011 19.2386 140.932 19.9886C139.864 20.7273 139.051 21.8182 138.494 23.2614C137.949 24.6932 137.676 26.4545 137.676 28.5455C137.676 30.6364 137.949 32.4034 138.494 33.8466C139.051 35.2784 139.864 36.3693 140.932 37.1193C142.011 37.858 143.335 38.2273 144.903 38.2273C146.472 38.2273 147.79 37.858 148.858 37.1193C149.938 36.3693 150.75 35.2784 151.295 33.8466C151.852 32.4034 152.131 30.6364 152.131 28.5455ZM196.47 11.0909V46H188.561L175.947 27.6591H175.743V46H166.266V11.0909H174.311L186.72 29.3636H186.993V11.0909H196.47ZM200.953 46V11.0909H226.112V18.7273H210.43V24.7273H224.817V32.3636H210.43V38.3636H226.044V46H200.953ZM230.812 46V11.0909H255.972V18.7273H240.29V24.7273H254.676V32.3636H240.29V38.3636H255.903V46H230.812ZM260.672 46V11.0909H275.74C278.331 11.0909 280.598 11.5625 282.541 12.5057C284.484 13.4489 285.996 14.8068 287.075 16.5795C288.155 18.3523 288.695 20.4773 288.695 22.9545C288.695 25.4545 288.138 27.5625 287.024 29.2784C285.922 30.9943 284.371 32.2898 282.371 33.1648C280.382 34.0398 278.058 34.4773 275.399 34.4773H266.399V27.1136H273.49C274.604 27.1136 275.553 26.9773 276.337 26.7045C277.132 26.4205 277.74 25.9716 278.161 25.358C278.592 24.7443 278.808 23.9432 278.808 22.9545C278.808 21.9545 278.592 21.142 278.161 20.517C277.74 19.8807 277.132 19.4148 276.337 19.1193C275.553 18.8125 274.604 18.6591 273.49 18.6591H270.149V46H260.672ZM281.126 29.9773L289.854 46H279.558L271.036 29.9773H281.126Z" fill="black"/>
<path d="M4.03977 68H2.13636V60.7273H4.22443C4.89441 60.7273 5.46733 60.8717 5.94318 61.1605C6.4214 61.447 6.78717 61.8589 7.04048 62.3963C7.29616 62.9337 7.42282 63.58 7.42045 64.3352C7.41809 65.1094 7.28314 65.7699 7.01562 66.3168C6.75047 66.8613 6.36577 67.2779 5.86151 67.5668C5.35961 67.8556 4.75237 68 4.03977 68ZM2.36364 67.7727H4.03977C4.71212 67.7727 5.28385 67.6366 5.75497 67.3643C6.22609 67.0897 6.58357 66.6955 6.82741 66.1818C7.07363 65.6681 7.19555 65.0526 7.19318 64.3352C7.19081 63.6274 7.07244 63.0213 6.83807 62.517C6.60606 62.0128 6.26989 61.6269 5.82955 61.3594C5.3892 61.0895 4.85417 60.9545 4.22443 60.9545H2.36364V67.7727ZM11.0462 68.1136C10.6177 68.1136 10.233 67.9905 9.89205 67.7443C9.55114 67.4957 9.28125 67.1584 9.08239 66.7322C8.88589 66.3037 8.78764 65.822 8.78764 65.2869C8.78764 64.7495 8.88589 64.2678 9.08239 63.8416C9.28125 63.4155 9.55114 63.0793 9.89205 62.8331C10.233 62.5845 10.6177 62.4602 11.0462 62.4602C11.4747 62.4602 11.8582 62.5845 12.1967 62.8331C12.5376 63.0817 12.8075 63.419 13.0064 63.8452C13.2053 64.2713 13.3047 64.7519 13.3047 65.2869C13.3047 65.822 13.2053 66.3037 13.0064 66.7322C12.8099 67.1584 12.5412 67.4957 12.2003 67.7443C11.8594 67.9905 11.4747 68.1136 11.0462 68.1136ZM11.0462 67.8864C11.4321 67.8864 11.7777 67.7727 12.0831 67.5455C12.3909 67.3182 12.6335 67.008 12.8111 66.6151C12.9886 66.2221 13.0774 65.7794 13.0774 65.2869C13.0774 64.7945 12.9875 64.353 12.8075 63.9624C12.63 63.5694 12.3885 63.2592 12.0831 63.032C11.7777 62.8023 11.4321 62.6875 11.0462 62.6875C10.6626 62.6875 10.317 62.8023 10.0092 63.032C9.70384 63.2592 9.46117 63.5694 9.28125 63.9624C9.10369 64.353 9.01491 64.7945 9.01491 65.2869C9.01491 65.7794 9.10369 66.2221 9.28125 66.6151C9.45881 67.008 9.70028 67.3182 10.0057 67.5455C10.3134 67.7727 10.6603 67.8864 11.0462 67.8864ZM16.9508 68.1136C16.475 68.1136 16.0583 67.9893 15.7008 67.7408C15.3457 67.4922 15.0699 67.1548 14.8734 66.7287C14.6769 66.3026 14.5787 65.822 14.5787 65.2869C14.5787 64.7519 14.6769 64.2713 14.8734 63.8452C15.0723 63.419 15.3422 63.0817 15.6831 62.8331C16.024 62.5845 16.4087 62.4602 16.8372 62.4602C17.1544 62.4602 17.448 62.5277 17.7179 62.6626C17.9901 62.7976 18.2269 62.9846 18.4281 63.2237C18.6293 63.4628 18.7856 63.7386 18.8968 64.0511C19.0105 64.3613 19.0673 64.6927 19.0673 65.0455V65.2727H14.6923V65.0455H18.84C18.84 64.6075 18.7501 64.2109 18.5701 63.8558C18.3902 63.4983 18.1487 63.2143 17.8457 63.0036C17.5427 62.7929 17.2065 62.6875 16.8372 62.6875C16.4631 62.6875 16.1246 62.7988 15.8216 63.0213C15.5185 63.2438 15.2759 63.5469 15.0936 63.9304C14.9113 64.3139 14.8154 64.7472 14.8059 65.2301V65.2585C14.8059 65.7344 14.8888 66.1723 15.0545 66.5724C15.2226 66.9702 15.4664 67.2886 15.786 67.5277C16.1056 67.7668 16.4939 67.8864 16.9508 67.8864C17.287 67.8864 17.5687 67.8272 17.796 67.7088C18.0256 67.5904 18.2091 67.4543 18.3464 67.3004C18.4861 67.1465 18.5891 67.0152 18.6554 66.9062L18.84 67.0341C18.7595 67.1714 18.6388 67.3241 18.4778 67.4922C18.3168 67.6603 18.1109 67.8059 17.8599 67.929C17.609 68.0521 17.3059 68.1136 16.9508 68.1136ZM23.9439 63.696L23.7166 63.7528C23.6432 63.5161 23.5402 63.3196 23.4077 63.1634C23.2775 63.0047 23.1177 62.8864 22.9283 62.8082C22.7389 62.7277 22.5187 62.6875 22.2678 62.6875C21.8321 62.6875 21.4794 62.7988 21.2095 63.0213C20.9396 63.2415 20.8047 63.5327 20.8047 63.8949C20.8047 64.1813 20.8958 64.4216 21.0781 64.6158C21.2628 64.8099 21.541 64.9531 21.9126 65.0455L22.7649 65.2585C23.165 65.358 23.468 65.526 23.674 65.7628C23.8823 65.9995 23.9865 66.286 23.9865 66.6222C23.9865 66.9181 23.9084 67.1785 23.7521 67.4034C23.5982 67.6283 23.3852 67.8035 23.1129 67.929C22.8407 68.0521 22.5258 68.1136 22.1683 68.1136C21.683 68.1136 21.2865 67.9953 20.9787 67.7585C20.6709 67.5218 20.4709 67.1856 20.3786 66.75L20.6058 66.6932C20.6863 67.0791 20.858 67.375 21.1207 67.581C21.3859 67.7846 21.7351 67.8864 22.1683 67.8864C22.6418 67.8864 23.0253 67.7704 23.3189 67.5384C23.6125 67.3063 23.7592 67.0009 23.7592 66.6222C23.7592 66.3404 23.6716 66.1025 23.4964 65.9084C23.3213 65.7143 23.0585 65.5734 22.7081 65.4858L21.8558 65.2727C21.4368 65.1686 21.1184 64.9981 20.9006 64.7614C20.6851 64.5246 20.5774 64.2358 20.5774 63.8949C20.5774 63.6084 20.6484 63.3587 20.7905 63.1456C20.9349 62.9302 21.1338 62.7621 21.3871 62.6413C21.6428 62.5206 21.9363 62.4602 22.2678 62.4602C22.6892 62.4602 23.0407 62.5644 23.3224 62.7727C23.6042 62.9787 23.8113 63.2865 23.9439 63.696ZM28.6483 64.3352V68H28.421V62.5455H28.6483V63.4119H28.6767C28.8045 63.1278 29.014 62.9006 29.3052 62.7301C29.5988 62.5597 29.9338 62.4744 30.3102 62.4744C30.6748 62.4744 30.9967 62.5537 31.2761 62.7124C31.5555 62.871 31.7744 63.09 31.9331 63.3693C32.0917 63.6487 32.171 63.9706 32.171 64.3352V68H31.9437V64.3352C31.9437 63.8523 31.7922 63.4593 31.4892 63.1562C31.1861 62.8532 30.7931 62.7017 30.3102 62.7017C29.9882 62.7017 29.7018 62.7715 29.4508 62.9112C29.2022 63.0509 29.0057 63.2438 28.8613 63.4901C28.7193 63.7363 28.6483 64.018 28.6483 64.3352ZM36.0364 68.1136C35.6079 68.1136 35.2232 67.9905 34.8823 67.7443C34.5414 67.4957 34.2715 67.1584 34.0726 66.7322C33.8761 66.3037 33.7779 65.822 33.7779 65.2869C33.7779 64.7495 33.8761 64.2678 34.0726 63.8416C34.2715 63.4155 34.5414 63.0793 34.8823 62.8331C35.2232 62.5845 35.6079 62.4602 36.0364 62.4602C36.4649 62.4602 36.8484 62.5845 37.187 62.8331C37.5279 63.0817 37.7978 63.419 37.9966 63.8452C38.1955 64.2713 38.2949 64.7519 38.2949 65.2869C38.2949 65.822 38.1955 66.3037 37.9966 66.7322C37.8001 67.1584 37.5314 67.4957 37.1905 67.7443C36.8496 67.9905 36.4649 68.1136 36.0364 68.1136ZM36.0364 67.8864C36.4223 67.8864 36.7679 67.7727 37.0733 67.5455C37.3811 67.3182 37.6238 67.008 37.8013 66.6151C37.9789 66.2221 38.0676 65.7794 38.0676 65.2869C38.0676 64.7945 37.9777 64.353 37.7978 63.9624C37.6202 63.5694 37.3787 63.2592 37.0733 63.032C36.7679 62.8023 36.4223 62.6875 36.0364 62.6875C35.6529 62.6875 35.3072 62.8023 34.9995 63.032C34.6941 63.2592 34.4514 63.5694 34.2715 63.9624C34.0939 64.353 34.0051 64.7945 34.0051 65.2869C34.0051 65.7794 34.0939 66.2221 34.2715 66.6151C34.449 67.008 34.6905 67.3182 34.9959 67.5455C35.3037 67.7727 35.6505 67.8864 36.0364 67.8864ZM41.6001 62.5455V62.7727H39.4411V62.5455H41.6001ZM40.2365 61.2386H40.4638V66.8494C40.4638 67.0625 40.5111 67.246 40.6058 67.3999C40.7005 67.5514 40.826 67.6686 40.9822 67.7514C41.1385 67.8319 41.3066 67.8722 41.4865 67.8722C41.5552 67.8722 41.6179 67.8662 41.6747 67.8544C41.7339 67.8426 41.7943 67.8248 41.8558 67.8011L41.9268 68.0142C41.8558 68.0402 41.786 68.0604 41.7173 68.0746C41.6487 68.0911 41.5717 68.0994 41.4865 68.0994C41.264 68.0994 41.0568 68.0485 40.8651 67.9467C40.6757 67.8449 40.523 67.7005 40.407 67.5135C40.2933 67.3265 40.2365 67.1051 40.2365 66.8494V61.2386ZM46.4119 64.3352V68H46.1847V60.7273H46.4119V63.4119H46.4403C46.5682 63.1278 46.7777 62.9006 47.0689 62.7301C47.3625 62.5597 47.6974 62.4744 48.0739 62.4744C48.4384 62.4744 48.7604 62.5537 49.0398 62.7124C49.3191 62.871 49.5381 63.09 49.6967 63.3693C49.8554 63.6487 49.9347 63.9706 49.9347 64.3352V68H49.7074V64.3352C49.7074 63.8523 49.5559 63.4593 49.2528 63.1562C48.9498 62.8532 48.5568 62.7017 48.0739 62.7017C47.7519 62.7017 47.4654 62.7715 47.2145 62.9112C46.9659 63.0509 46.7694 63.2438 46.625 63.4901C46.483 63.7363 46.4119 64.018 46.4119 64.3352ZM53.2319 68.1136C52.9336 68.1136 52.6578 68.0521 52.4045 67.929C52.1535 67.8059 51.9511 67.6259 51.7972 67.3892C51.6457 67.1525 51.57 66.8636 51.57 66.5227C51.57 66.3381 51.5996 66.1652 51.6587 66.0043C51.7179 65.8409 51.8221 65.6929 51.9712 65.5604C52.1204 65.4278 52.3287 65.3142 52.5962 65.2195C52.8661 65.1248 53.2106 65.0526 53.6296 65.0028C53.8806 64.9744 54.1173 64.9413 54.3398 64.9034C54.5624 64.8655 54.7435 64.8087 54.8832 64.733C55.0228 64.6572 55.0927 64.5483 55.0927 64.4062V64.0795C55.0927 63.6605 54.9518 63.3243 54.6701 63.071C54.3884 62.8153 54.0131 62.6875 53.5444 62.6875C53.1609 62.6875 52.8259 62.7727 52.5394 62.9432C52.253 63.1113 52.0529 63.348 51.9393 63.6534L51.7262 63.5682C51.8114 63.3409 51.9428 63.1444 52.1204 62.9787C52.2979 62.813 52.5086 62.6851 52.7525 62.5952C52.9963 62.5052 53.2603 62.4602 53.5444 62.4602C53.8214 62.4602 54.0688 62.5017 54.2866 62.5845C54.5067 62.665 54.6938 62.7786 54.8477 62.9254C55.0015 63.0698 55.1187 63.2403 55.1992 63.4368C55.2797 63.6333 55.32 63.8475 55.32 64.0795V68H55.0927V66.892H55.0643C54.9506 67.1383 54.8027 67.3537 54.6204 67.5384C54.4405 67.7206 54.2321 67.8627 53.9954 67.9645C53.761 68.0639 53.5065 68.1136 53.2319 68.1136ZM53.2319 67.8864C53.5775 67.8864 53.8912 67.794 54.1729 67.6094C54.4547 67.4223 54.6784 67.1631 54.8441 66.8317C55.0098 66.4979 55.0927 66.1108 55.0927 65.6705V64.8466C55.0264 64.8963 54.9459 64.9401 54.8512 64.978C54.7589 65.0159 54.6535 65.0502 54.5352 65.081C54.4192 65.1094 54.2925 65.1342 54.1552 65.1555C54.0179 65.1768 53.8711 65.197 53.7148 65.2159C53.2272 65.2727 52.8436 65.3591 52.5643 65.4751C52.2849 65.5911 52.0872 65.7367 51.9712 65.9119C51.8552 66.0871 51.7972 66.2907 51.7972 66.5227C51.7972 66.9347 51.9345 67.2649 52.2092 67.5135C52.4862 67.7621 52.8271 67.8864 53.2319 67.8864ZM60.8331 62.5455L58.8871 68H58.5746L56.6286 62.5455H56.87L58.7166 67.7159H58.745L60.5916 62.5455H60.8331ZM64.1578 68.1136C63.682 68.1136 63.2653 67.9893 62.9078 67.7408C62.5527 67.4922 62.2769 67.1548 62.0804 66.7287C61.8839 66.3026 61.7857 65.822 61.7857 65.2869C61.7857 64.7519 61.8839 64.2713 62.0804 63.8452C62.2793 63.419 62.5492 63.0817 62.8901 62.8331C63.231 62.5845 63.6157 62.4602 64.0442 62.4602C64.3614 62.4602 64.655 62.5277 64.9249 62.6626C65.1971 62.7976 65.4339 62.9846 65.6351 63.2237C65.8364 63.4628 65.9926 63.7386 66.1039 64.0511C66.2175 64.3613 66.2743 64.6927 66.2743 65.0455V65.2727H61.8993V65.0455H66.0471C66.0471 64.6075 65.9571 64.2109 65.7772 63.8558C65.5972 63.4983 65.3558 63.2143 65.0527 63.0036C64.7497 62.7929 64.4135 62.6875 64.0442 62.6875C63.6702 62.6875 63.3316 62.7988 63.0286 63.0213C62.7256 63.2438 62.4829 63.5469 62.3006 63.9304C62.1183 64.3139 62.0224 64.7472 62.013 65.2301V65.2585C62.013 65.7344 62.0958 66.1723 62.2615 66.5724C62.4296 66.9702 62.6735 67.2886 62.9931 67.5277C63.3127 67.7668 63.7009 67.8864 64.1578 67.8864C64.494 67.8864 64.7757 67.8272 65.003 67.7088C65.2327 67.5904 65.4161 67.4543 65.5534 67.3004C65.6931 67.1465 65.7961 67.0152 65.8624 66.9062L66.0471 67.0341C65.9666 67.1714 65.8458 67.3241 65.6848 67.4922C65.5239 67.6603 65.3179 67.8059 65.0669 67.929C64.816 68.0521 64.513 68.1136 64.1578 68.1136ZM72.06 68.1136C71.7617 68.1136 71.4859 68.0521 71.2326 67.929C70.9817 67.8059 70.7792 67.6259 70.6254 67.3892C70.4738 67.1525 70.3981 66.8636 70.3981 66.5227C70.3981 66.3381 70.4277 66.1652 70.4869 66.0043C70.546 65.8409 70.6502 65.6929 70.7994 65.5604C70.9485 65.4278 71.1568 65.3142 71.4244 65.2195C71.6942 65.1248 72.0387 65.0526 72.4577 65.0028C72.7087 64.9744 72.9454 64.9413 73.168 64.9034C73.3905 64.8655 73.5716 64.8087 73.7113 64.733C73.851 64.6572 73.9208 64.5483 73.9208 64.4062V64.0795C73.9208 63.6605 73.7799 63.3243 73.4982 63.071C73.2165 62.8153 72.8413 62.6875 72.3725 62.6875C71.989 62.6875 71.654 62.7727 71.3675 62.9432C71.0811 63.1113 70.881 63.348 70.7674 63.6534L70.5543 63.5682C70.6396 63.3409 70.771 63.1444 70.9485 62.9787C71.1261 62.813 71.3368 62.6851 71.5806 62.5952C71.8245 62.5052 72.0884 62.4602 72.3725 62.4602C72.6495 62.4602 72.8969 62.5017 73.1147 62.5845C73.3349 62.665 73.5219 62.7786 73.6758 62.9254C73.8297 63.0698 73.9469 63.2403 74.0273 63.4368C74.1078 63.6333 74.1481 63.8475 74.1481 64.0795V68H73.9208V66.892H73.8924C73.7788 67.1383 73.6308 67.3537 73.4485 67.5384C73.2686 67.7206 73.0603 67.8627 72.8235 67.9645C72.5891 68.0639 72.3346 68.1136 72.06 68.1136ZM72.06 67.8864C72.4057 67.8864 72.7193 67.794 73.0011 67.6094C73.2828 67.4223 73.5065 67.1631 73.6722 66.8317C73.8379 66.4979 73.9208 66.1108 73.9208 65.6705V64.8466C73.8545 64.8963 73.774 64.9401 73.6793 64.978C73.587 65.0159 73.4817 65.0502 73.3633 65.081C73.2473 65.1094 73.1206 65.1342 72.9833 65.1555C72.846 65.1768 72.6992 65.197 72.543 65.2159C72.0553 65.2727 71.6718 65.3591 71.3924 65.4751C71.113 65.5911 70.9154 65.7367 70.7994 65.9119C70.6834 66.0871 70.6254 66.2907 70.6254 66.5227C70.6254 66.9347 70.7627 67.2649 71.0373 67.5135C71.3143 67.7621 71.6552 67.8864 72.06 67.8864ZM80.794 62.5455V62.7727H78.6349V62.5455H80.794ZM79.3878 68V61.6506C79.3878 61.3949 79.4446 61.1735 79.5582 60.9865C79.6742 60.7995 79.8269 60.6551 80.0163 60.5533C80.2081 60.4515 80.4152 60.4006 80.6378 60.4006C80.723 60.4006 80.8 60.4077 80.8686 60.4219C80.9373 60.4361 81.0047 60.455 81.071 60.4787L81 60.6918C80.9408 60.6728 80.8828 60.6574 80.826 60.6456C80.7692 60.6338 80.7064 60.6278 80.6378 60.6278C80.3655 60.6278 80.1264 60.719 79.9205 60.9013C79.7169 61.0836 79.6151 61.3333 79.6151 61.6506L79.608 68H79.3878ZM83.476 68.1136C83.1777 68.1136 82.9019 68.0521 82.6486 67.929C82.3977 67.8059 82.1953 67.6259 82.0414 67.3892C81.8899 67.1525 81.8141 66.8636 81.8141 66.5227C81.8141 66.3381 81.8437 66.1652 81.9029 66.0043C81.9621 65.8409 82.0662 65.6929 82.2154 65.5604C82.3645 65.4278 82.5729 65.3142 82.8404 65.2195C83.1103 65.1248 83.4547 65.0526 83.8738 65.0028C84.1247 64.9744 84.3614 64.9413 84.584 64.9034C84.8065 64.8655 84.9876 64.8087 85.1273 64.733C85.267 64.6572 85.3368 64.5483 85.3368 64.4062V64.0795C85.3368 63.6605 85.196 63.3243 84.9142 63.071C84.6325 62.8153 84.2573 62.6875 83.7885 62.6875C83.405 62.6875 83.07 62.7727 82.7836 62.9432C82.4971 63.1113 82.2971 63.348 82.1834 63.6534L81.9703 63.5682C82.0556 63.3409 82.187 63.1444 82.3645 62.9787C82.5421 62.813 82.7528 62.6851 82.9966 62.5952C83.2405 62.5052 83.5044 62.4602 83.7885 62.4602C84.0655 62.4602 84.3129 62.5017 84.5307 62.5845C84.7509 62.665 84.9379 62.7786 85.0918 62.9254C85.2457 63.0698 85.3629 63.2403 85.4434 63.4368C85.5239 63.6333 85.5641 63.8475 85.5641 64.0795V68H85.3368V66.892H85.3084C85.1948 67.1383 85.0468 67.3537 84.8645 67.5384C84.6846 67.7206 84.4763 67.8627 84.2395 67.9645C84.0051 68.0639 83.7507 68.1136 83.476 68.1136ZM83.476 67.8864C83.8217 67.8864 84.1354 67.794 84.4171 67.6094C84.6988 67.4223 84.9225 67.1631 85.0882 66.8317C85.254 66.4979 85.3368 66.1108 85.3368 65.6705V64.8466C85.2705 64.8963 85.19 64.9401 85.0953 64.978C85.003 65.0159 84.8977 65.0502 84.7793 65.081C84.6633 65.1094 84.5366 65.1342 84.3993 65.1555C84.262 65.1768 84.1152 65.197 83.959 65.2159C83.4713 65.2727 83.0878 65.3591 82.8084 65.4751C82.5291 65.5911 82.3314 65.7367 82.2154 65.9119C82.0994 66.0871 82.0414 66.2907 82.0414 66.5227C82.0414 66.9347 82.1787 67.2649 82.4533 67.5135C82.7303 67.7621 83.0712 67.8864 83.476 67.8864ZM87.7498 64.3352V68H87.5225V62.5455H87.7498V63.4119H87.7782C87.9061 63.1278 88.1156 62.9006 88.4068 62.7301C88.7003 62.5597 89.0353 62.4744 89.4118 62.4744C89.7763 62.4744 90.0983 62.5537 90.3777 62.7124C90.657 62.871 90.876 63.09 91.0346 63.3693C91.1932 63.6487 91.2725 63.9706 91.2725 64.3352V68H91.0453V64.3352C91.0453 63.8523 90.8938 63.4593 90.5907 63.1562C90.2877 62.8532 89.8947 62.7017 89.4118 62.7017C89.0898 62.7017 88.8033 62.7715 88.5524 62.9112C88.3038 63.0509 88.1073 63.2438 87.9629 63.4901C87.8208 63.7363 87.7498 64.018 87.7498 64.3352ZM95.1664 68.1136C94.726 68.1136 94.333 67.9905 93.9874 67.7443C93.6441 67.4957 93.373 67.1584 93.1742 66.7322C92.9777 66.3061 92.8794 65.8243 92.8794 65.2869C92.8794 64.7543 92.9777 64.2749 93.1742 63.8487C93.3707 63.4202 93.6406 63.0817 93.9838 62.8331C94.3295 62.5845 94.7237 62.4602 95.1664 62.4602C95.4931 62.4602 95.7926 62.5312 96.0648 62.6733C96.3394 62.813 96.5691 63.0095 96.7537 63.2628C96.9384 63.5137 97.0579 63.8049 97.1124 64.1364H96.8709C96.7975 63.7079 96.6022 63.3598 96.285 63.0923C95.9701 62.8224 95.5972 62.6875 95.1664 62.6875C94.7757 62.6875 94.4242 62.8011 94.1117 63.0284C93.8016 63.2533 93.5565 63.5623 93.3766 63.9553C93.1967 64.3459 93.1067 64.7898 93.1067 65.2869C93.1067 65.7699 93.1931 66.2079 93.3659 66.6009C93.5411 66.9938 93.7838 67.3063 94.0939 67.5384C94.4041 67.7704 94.7615 67.8864 95.1664 67.8864C95.4576 67.8864 95.7251 67.826 95.9689 67.7053C96.2128 67.5821 96.4152 67.4093 96.5762 67.1868C96.7395 66.9643 96.8425 66.705 96.8851 66.4091H97.1266C97.0745 66.7524 96.9561 67.0518 96.7715 67.3075C96.5868 67.5632 96.356 67.7621 96.079 67.9041C95.802 68.0438 95.4978 68.1136 95.1664 68.1136ZM98.9821 70.0455C98.8897 70.0455 98.7915 70.0324 98.6873 70.0064C98.5832 69.9827 98.4778 69.9484 98.3713 69.9034L98.4565 69.7045C98.6909 69.804 98.9039 69.8395 99.0957 69.8111C99.2898 69.785 99.4603 69.6963 99.6071 69.5447C99.7562 69.3932 99.8793 69.1813 99.9764 68.9091L100.268 68.0994L98.2789 62.5455H98.5204L100.367 67.7159H100.395L102.242 62.5455H102.483L100.189 68.9943C100.109 69.2216 100.008 69.4134 99.8876 69.5696C99.7669 69.7259 99.6296 69.8442 99.4757 69.9247C99.3242 70.0052 99.1596 70.0455 98.9821 70.0455ZM106.998 60.7273V68H106.771V60.7273H106.998ZM110.861 68.1136C110.432 68.1136 110.047 67.9905 109.706 67.7443C109.366 67.4957 109.096 67.1584 108.897 66.7322C108.7 66.3037 108.602 65.822 108.602 65.2869C108.602 64.7495 108.7 64.2678 108.897 63.8416C109.096 63.4155 109.366 63.0793 109.706 62.8331C110.047 62.5845 110.432 62.4602 110.861 62.4602C111.289 62.4602 111.673 62.5845 112.011 62.8331C112.352 63.0817 112.622 63.419 112.821 63.8452C113.02 64.2713 113.119 64.7519 113.119 65.2869C113.119 65.822 113.02 66.3037 112.821 66.7322C112.624 67.1584 112.356 67.4957 112.015 67.7443C111.674 67.9905 111.289 68.1136 110.861 68.1136ZM110.861 67.8864C111.247 67.8864 111.592 67.7727 111.898 67.5455C112.205 67.3182 112.448 67.008 112.626 66.6151C112.803 66.2221 112.892 65.7794 112.892 65.2869C112.892 64.7945 112.802 64.353 112.622 63.9624C112.444 63.5694 112.203 63.2592 111.898 63.032C111.592 62.8023 111.247 62.6875 110.861 62.6875C110.477 62.6875 110.131 62.8023 109.824 63.032C109.518 63.2592 109.276 63.5694 109.096 63.9624C108.918 64.353 108.829 64.7945 108.829 65.2869C108.829 65.7794 108.918 66.2221 109.096 66.6151C109.273 67.008 109.515 67.3182 109.82 67.5455C110.128 67.7727 110.475 67.8864 110.861 67.8864ZM116.566 70.1591C116.261 70.1591 115.979 70.1177 115.721 70.0348C115.463 69.9543 115.241 69.8324 115.054 69.669C114.867 69.508 114.727 69.3068 114.635 69.0653L114.848 68.9801C114.931 69.1932 115.054 69.3696 115.217 69.5092C115.383 69.6513 115.58 69.7566 115.81 69.8253C116.042 69.8963 116.294 69.9318 116.566 69.9318C117.135 69.9318 117.577 69.7815 117.895 69.4808C118.212 69.1825 118.37 68.7268 118.37 68.1136V66.6364H118.342C118.247 66.9394 118.106 67.1927 117.919 67.3963C117.732 67.5975 117.516 67.7491 117.27 67.8509C117.023 67.9503 116.765 68 116.495 68C116.069 68 115.699 67.8852 115.384 67.6555C115.069 67.4259 114.825 67.1075 114.652 66.7003C114.48 66.2931 114.393 65.822 114.393 65.2869C114.393 64.7472 114.478 64.2642 114.649 63.8381C114.819 63.4119 115.062 63.0758 115.377 62.8295C115.692 62.5833 116.065 62.4602 116.495 62.4602C116.789 62.4602 117.056 62.5206 117.298 62.6413C117.539 62.7597 117.749 62.9302 117.926 63.1527C118.104 63.3729 118.243 63.6345 118.342 63.9375H118.37V62.5455H118.598V68.1136C118.598 68.5611 118.516 68.9363 118.353 69.2393C118.189 69.5447 117.956 69.7744 117.653 69.9283C117.35 70.0821 116.988 70.1591 116.566 70.1591ZM116.495 67.7727C116.874 67.7727 117.203 67.6721 117.483 67.4709C117.764 67.2696 117.982 66.9832 118.136 66.6115C118.292 66.2375 118.37 65.7959 118.37 65.2869C118.37 64.7945 118.295 64.353 118.143 63.9624C117.992 63.5694 117.775 63.2592 117.493 63.032C117.214 62.8023 116.881 62.6875 116.495 62.6875C116.109 62.6875 115.776 62.8023 115.494 63.032C115.215 63.2592 114.999 63.5694 114.848 63.9624C114.696 64.353 114.62 64.7945 114.62 65.2869C114.62 65.7794 114.696 66.2126 114.848 66.5866C115.002 66.9583 115.218 67.2495 115.498 67.4602C115.779 67.6686 116.112 67.7727 116.495 67.7727ZM122.491 68.1136C122.063 68.1136 121.678 67.9905 121.337 67.7443C120.996 67.4957 120.727 67.1584 120.528 66.7322C120.331 66.3037 120.233 65.822 120.233 65.2869C120.233 64.7495 120.331 64.2678 120.528 63.8416C120.727 63.4155 120.996 63.0793 121.337 62.8331C121.678 62.5845 122.063 62.4602 122.491 62.4602C122.92 62.4602 123.304 62.5845 123.642 62.8331C123.983 63.0817 124.253 63.419 124.452 63.8452C124.651 64.2713 124.75 64.7519 124.75 65.2869C124.75 65.822 124.651 66.3037 124.452 66.7322C124.255 67.1584 123.987 67.4957 123.646 67.7443C123.305 67.9905 122.92 68.1136 122.491 68.1136ZM122.491 67.8864C122.877 67.8864 123.223 67.7727 123.528 67.5455C123.836 67.3182 124.079 67.008 124.256 66.6151C124.434 66.2221 124.523 65.7794 124.523 65.2869C124.523 64.7945 124.433 64.353 124.253 63.9624C124.075 63.5694 123.834 63.2592 123.528 63.032C123.223 62.8023 122.877 62.6875 122.491 62.6875C122.108 62.6875 121.762 62.8023 121.455 63.032C121.149 63.2592 120.906 63.5694 120.727 63.9624C120.549 64.353 120.46 64.7945 120.46 65.2869C120.46 65.7794 120.549 66.2221 120.727 66.6151C120.904 67.008 121.146 67.3182 121.451 67.5455C121.759 67.7727 122.106 67.8864 122.491 67.8864ZM129.412 70.0455C129.319 70.0455 129.221 70.0324 129.117 70.0064C129.013 69.9827 128.907 69.9484 128.801 69.9034L128.886 69.7045C129.121 69.804 129.334 69.8395 129.525 69.8111C129.72 69.785 129.89 69.6963 130.037 69.5447C130.186 69.3932 130.309 69.1813 130.406 68.9091L130.697 68.0994L128.709 62.5455H128.95L130.797 67.7159H130.825L132.672 62.5455H132.913L130.619 68.9943C130.539 69.2216 130.438 69.4134 130.317 69.5696C130.197 69.7259 130.059 69.8442 129.905 69.9247C129.754 70.0052 129.589 70.0455 129.412 70.0455ZM136.238 68.1136C135.762 68.1136 135.345 67.9893 134.988 67.7408C134.633 67.4922 134.357 67.1548 134.161 66.7287C133.964 66.3026 133.866 65.822 133.866 65.2869C133.866 64.7519 133.964 64.2713 134.161 63.8452C134.359 63.419 134.629 63.0817 134.97 62.8331C135.311 62.5845 135.696 62.4602 136.124 62.4602C136.442 62.4602 136.735 62.5277 137.005 62.6626C137.277 62.7976 137.514 62.9846 137.715 63.2237C137.916 63.4628 138.073 63.7386 138.184 64.0511C138.298 64.3613 138.354 64.6927 138.354 65.0455V65.2727H133.979V65.0455H138.127C138.127 64.6075 138.037 64.2109 137.857 63.8558C137.677 63.4983 137.436 63.2143 137.133 63.0036C136.83 62.7929 136.494 62.6875 136.124 62.6875C135.75 62.6875 135.412 62.7988 135.109 63.0213C134.806 63.2438 134.563 63.5469 134.381 63.9304C134.198 64.3139 134.103 64.7472 134.093 65.2301V65.2585C134.093 65.7344 134.176 66.1723 134.342 66.5724C134.51 66.9702 134.754 67.2886 135.073 67.5277C135.393 67.7668 135.781 67.8864 136.238 67.8864C136.574 67.8864 136.856 67.8272 137.083 67.7088C137.313 67.5904 137.496 67.4543 137.634 67.3004C137.773 67.1465 137.876 67.0152 137.942 66.9062L138.127 67.0341C138.047 67.1714 137.926 67.3241 137.765 67.4922C137.604 67.6603 137.398 67.8059 137.147 67.929C136.896 68.0521 136.593 68.1136 136.238 68.1136ZM141.669 62.5455V62.7727H139.509V62.5455H141.669ZM140.305 61.2386H140.532V66.8494C140.532 67.0625 140.579 67.246 140.674 67.3999C140.769 67.5514 140.894 67.6686 141.051 67.7514C141.207 67.8319 141.375 67.8722 141.555 67.8722C141.624 67.8722 141.686 67.8662 141.743 67.8544C141.802 67.8426 141.863 67.8248 141.924 67.8011L141.995 68.0142C141.924 68.0402 141.854 68.0604 141.786 68.0746C141.717 68.0911 141.64 68.0994 141.555 68.0994C141.332 68.0994 141.125 68.0485 140.933 67.9467C140.744 67.8449 140.591 67.7005 140.475 67.5135C140.362 67.3265 140.305 67.1051 140.305 66.8494V61.2386ZM143.739 68.0426C143.668 68.0426 143.607 68.0178 143.558 67.968C143.508 67.9183 143.483 67.858 143.483 67.7869C143.483 67.7159 143.508 67.6555 143.558 67.6058C143.607 67.5561 143.668 67.5312 143.739 67.5312C143.81 67.5312 143.87 67.5561 143.92 67.6058C143.97 67.6555 143.994 67.7159 143.994 67.7869C143.994 67.8343 143.983 67.8781 143.959 67.9183C143.938 67.9562 143.907 67.9858 143.867 68.0071C143.829 68.0308 143.786 68.0426 143.739 68.0426Z" fill="black"/>
</svg>
