<svg xmlns="http://www.w3.org/2000/svg">

  <symbol id="icon-grid-2x2" viewBox="-2 -2 24 24" xmlns="http://www.w3.org/2000/svg" preserveAspectRatio="xMinYMin"><!--! Jam Interface: https://github.com/michaelampr/jam/blob/master/icons/grid-f.svg --><path fill="currentColor" d='M2 0h4a2 2 0 0 1 2 2v4a2 2 0 0 1-2 2H2a2 2 0 0 1-2-2V2a2 2 0 0 1 2-2zm12 0h4a2 2 0 0 1 2 2v4a2 2 0 0 1-2 2h-4a2 2 0 0 1-2-2V2a2 2 0 0 1 2-2zm0 12h4a2 2 0 0 1 2 2v4a2 2 0 0 1-2 2h-4a2 2 0 0 1-2-2v-4a2 2 0 0 1 2-2zM2 12h4a2 2 0 0 1 2 2v4a2 2 0 0 1-2 2H2a2 2 0 0 1-2-2v-4a2 2 0 0 1 2-2z' /></symbol>

  <symbol id="icon-feedly" viewBox="0 0 32 32" xmlns="http://www.w3.org/2000/svg"><!--! CoreUI Icons: https://github.com/coreui/coreui-icons/blob/master/svg/brand/cib-feedly.svg --><path fill="currentColor" d="M18.479 2.651c-1.364-1.391-3.604-1.391-4.968 0l-12.484 12.719c-1.365 1.412-1.365 3.652 0 5.057l8.911 9.079c0.636 0.573 1.464 0.885 2.317 0.885h7.485c0.943 0 1.839-0.38 2.495-1.052l8.739-8.901c1.371-1.411 1.371-3.651 0-5.063zM18.136 25.88l-1.251 1.265c-0.093 0.1-0.219 0.157-0.355 0.157h-1.067c-0.125-0.005-0.24-0.048-0.328-0.131l-1.276-1.292c-0.193-0.203-0.193-0.52 0-0.724l1.785-1.812c0.193-0.204 0.511-0.204 0.709 0l1.781 1.812c0.197 0.204 0.197 0.527 0 0.724zM18.136 18.265l-4.985 5.079c-0.093 0.093-0.224 0.151-0.359 0.145h-1.063c-0.125 0.005-0.245-0.041-0.333-0.12l-1.271-1.296c-0.193-0.199-0.193-0.521 0-0.724l5.52-5.62c0.193-0.199 0.516-0.199 0.709 0l1.781 1.817c0.197 0.199 0.197 0.521 0 0.719zM18.136 10.656l-8.724 8.88c-0.095 0.1-0.219 0.152-0.355 0.152h-1.068c-0.125 0-0.24-0.043-0.333-0.125l-1.271-1.297c-0.192-0.197-0.192-0.52 0-0.719l9.26-9.427c0.193-0.199 0.511-0.199 0.709 0l1.781 1.812c0.197 0.204 0.197 0.527 0 0.724z"/></symbol>

  <symbol id="icon-inoreader" viewBox="0 0 72 72" version="1.1" xmlns="http://www.w3.org/2000/svg" xmlns:xlink="http://www.w3.org/1999/xlink"><!--! Inoreader Logo: https://www.inoreader.com/brand/ --><g stroke="none" stroke-width="1" fill="none" fill-rule="evenodd"><g transform="translate(-1250.000000, -1834.000000)" fill="currentColor" fill-rule="nonzero"><path d="M1286,1834 C1305.88225,1834 1322,1850.11775 1322,1870 C1322,1889.88225 1305.88225,1906 1286,1906 C1266.11775,1906 1250,1889.88225 1250,1870 C1250,1850.11775 1266.11775,1834 1286,1834 Z M1278.01029,1864.98015 C1270.82534,1864.98015 1265,1870.80399 1265,1877.98875 C1265,1885.17483 1270.82534,1891 1278.01029,1891 C1285.19326,1891 1291.01859,1885.17483 1291.01859,1877.98875 C1291.01859,1870.80399 1285.19326,1864.98015 1278.01029,1864.98015 Z M1281.67908,1870.54455 C1283.73609,1870.54455 1285.40427,1872.21533 1285.40427,1874.2703 C1285.40427,1876.33124 1283.73609,1877.9987 1281.67908,1877.9987 C1279.61941,1877.9987 1277.94991,1876.33124 1277.94991,1874.2703 C1277.94991,1872.21533 1279.61941,1870.54455 1281.67908,1870.54455 Z M1278.01003,1855.78714 L1278.01003,1860.47435 C1287.66605,1860.47435 1295.52584,1868.33193 1295.52584,1877.98901 L1295.52584,1877.98901 L1300.21451,1877.98901 C1300.21451,1865.74746 1290.25391,1855.78714 1278.01003,1855.78714 L1278.01003,1855.78714 Z M1278.01009,1846 L1278.01009,1850.68721 C1285.30188,1850.68721 1292.15771,1853.5278 1297.31618,1858.68479 C1302.47398,1863.84179 1305.31067,1870.69942 1305.31067,1877.98901 L1305.31067,1877.98901 L1310,1877.98901 C1310,1869.44534 1306.67162,1861.41192 1300.6293,1855.36845 C1294.58632,1849.32696 1286.55533,1846 1278.01009,1846 L1278.01009,1846 Z"></path></g></g></symbol>

  <symbol id="icon-kofi" viewBox="0 0 24 24" xmlns="http://www.w3.org/2000/svg"><!--! Ko-Fi Logo: https://iconscout.com/icon/ko-fi-3628290 --><path fill="currentColor" d="M23.881 8.948c-.773-4.085-4.859-4.593-4.859-4.593H.723c-.604 0-.679.798-.679.798s-.082 7.324-.022 11.822c.164 2.424 2.586 2.672 2.586 2.672s8.267-.023 11.966-.049c2.438-.426 2.683-2.566 2.658-3.734 4.352.24 7.422-2.831 6.649-6.916zm-11.062 3.511c-1.246 1.453-4.011 3.976-4.011 3.976s-.121.119-.31.023c-.076-.057-.108-.09-.108-.09-.443-.441-3.368-3.049-4.034-3.954-.709-.965-1.041-2.7-.091-3.71.951-1.01 3.005-1.086 4.363.407 0 0 1.565-1.782 3.468-.963 1.904.82 1.832 3.011.723 4.311zm6.173.478c-.928.116-1.682.028-1.682.028V7.284h1.77s1.971.551 1.971 2.638c0 1.913-.985 2.667-2.059 3.015z"/></symbol>

  <symbol id="icon-fa-bars" xmlns="http://www.w3.org/2000/svg" viewBox="0 0 448 512"><!--! Font Awesome Pro 6.2.0 by @fontawesome - https://fontawesome.com License - https://fontawesome.com/license (Commercial License) Copyright 2022 Fonticons, Inc. --><path d="M0 96C0 78.3 14.3 64 32 64H416c17.7 0 32 14.3 32 32s-14.3 32-32 32H32C14.3 128 0 113.7 0 96zM0 256c0-17.7 14.3-32 32-32H416c17.7 0 32 14.3 32 32s-14.3 32-32 32H32c-17.7 0-32-14.3-32-32zM448 416c0 17.7-14.3 32-32 32H32c-17.7 0-32-14.3-32-32s14.3-32 32-32H416c17.7 0 32 14.3 32 32z" fill="currentColor" /></symbol>

  <symbol id="icon-fa-tools" xmlns="http://www.w3.org/2000/svg" viewBox="0 0 512 512"><!--! Font Awesome Pro 6.2.0 by @fontawesome - https://fontawesome.com License - https://fontawesome.com/license (Commercial License) Copyright 2022 Fonticons, Inc. --><path d="M78.6 5C69.1-2.4 55.6-1.5 47 7L7 47c-8.5 8.5-9.4 22-2.1 31.6l80 104c4.5 5.9 11.6 9.4 19 9.4h54.1l109 109c-14.7 29-10 65.4 14.3 89.6l112 112c12.5 12.5 32.8 12.5 45.3 0l64-64c12.5-12.5 12.5-32.8 0-45.3l-112-112c-24.2-24.2-60.6-29-89.6-14.3l-109-109V104c0-7.5-3.5-14.5-9.4-19L78.6 5zM19.9 396.1C7.2 408.8 0 426.1 0 444.1C0 481.6 30.4 512 67.9 512c18 0 35.3-7.2 48-19.9L233.7 374.3c-7.8-20.9-9-43.6-3.6-65.1l-61.7-61.7L19.9 396.1zM512 144c0-10.5-1.1-20.7-3.2-30.5c-2.4-11.2-16.1-14.1-24.2-6l-63.9 63.9c-3 3-7.1 4.7-11.3 4.7H352c-8.8 0-16-7.2-16-16V102.6c0-4.2 1.7-8.3 4.7-11.3l63.9-63.9c8.1-8.1 5.2-21.8-6-24.2C388.7 1.1 378.5 0 368 0C288.5 0 224 64.5 224 144l0 .8 85.3 85.3c36-9.1 75.8 .5 104 28.7L429 274.5c49-23 83-72.8 83-130.5zM104 432c0 13.3-10.7 24-24 24s-24-10.7-24-24s10.7-24 24-24s24 10.7 24 24z" fill="currentColor" /></symbol>

  <symbol id="icon-fa-rss" xmlns="http://www.w3.org/2000/svg" viewBox="0 0 448 512"><!--! Font Awesome Pro 6.2.0 by @fontawesome - https://fontawesome.com License - https://fontawesome.com/license (Commercial License) Copyright 2022 Fonticons, Inc. --><path d="M0 64C0 46.3 14.3 32 32 32c229.8 0 416 186.2 416 416c0 17.7-14.3 32-32 32s-32-14.3-32-32C384 253.6 226.4 96 32 96C14.3 96 0 81.7 0 64zM128 416c0 35.3-28.7 64-64 64s-64-28.7-64-64s28.7-64 64-64s64 28.7 64 64zM32 160c159.1 0 288 128.9 288 288c0 17.7-14.3 32-32 32s-32-14.3-32-32c0-123.7-100.3-224-224-224c-17.7 0-32-14.3-32-32s14.3-32 32-32z" fill="currentColor" /></symbol>

  <symbol id="icon-fa-sun" xmlns="http://www.w3.org/2000/svg" viewBox="0 0 512 512"><!--! Font Awesome Pro 6.2.0 by @fontawesome - https://fontawesome.com License - https://fontawesome.com/license (Commercial License) Copyright 2022 Fonticons, Inc. --><path d="M361.5 1.2c5 2.1 8.6 6.6 9.6 11.9L391 121l107.9 19.8c5.3 1 9.8 4.6 11.9 9.6s1.5 10.7-1.6 15.2L446.9 256l62.3 90.3c3.1 4.5 3.7 10.2 1.6 15.2s-6.6 8.6-11.9 9.6L391 391 371.1 498.9c-1 5.3-4.6 9.8-9.6 11.9s-10.7 1.5-15.2-1.6L256 446.9l-90.3 62.3c-4.5 3.1-10.2 3.7-15.2 1.6s-8.6-6.6-9.6-11.9L121 391 13.1 371.1c-5.3-1-9.8-4.6-11.9-9.6s-1.5-10.7 1.6-15.2L65.1 256 2.8 165.7c-3.1-4.5-3.7-10.2-1.6-15.2s6.6-8.6 11.9-9.6L121 121 140.9 13.1c1-5.3 4.6-9.8 9.6-11.9s10.7-1.5 15.2 1.6L256 65.1 346.3 2.8c4.5-3.1 10.2-3.7 15.2-1.6zM352 256c0 53-43 96-96 96s-96-43-96-96s43-96 96-96s96 43 96 96zm32 0c0-70.7-57.3-128-128-128s-128 57.3-128 128s57.3 128 128 128s128-57.3 128-128z" fill="currentColor" /></symbol>

  <symbol id="icon-fa-moon" xmlns="http://www.w3.org/2000/svg" viewBox="0 0 384 512"><!--! Font Awesome Pro 6.2.0 by @fontawesome - https://fontawesome.com License - https://fontawesome.com/license (Commercial License) Copyright 2022 Fonticons, Inc. --><path d="M223.5 32C100 32 0 132.3 0 256S100 480 223.5 480c60.6 0 115.5-24.2 155.8-63.4c5-4.9 6.3-12.5 3.1-18.7s-10.1-9.7-17-8.5c-9.8 1.7-19.8 2.6-30.1 2.6c-96.9 0-175.5-78.8-175.5-176c0-65.8 36-123.1 89.3-153.3c6.1-3.5 9.2-10.5 7.7-17.3s-7.3-11.9-14.3-12.5c-6.3-.5-12.6-.8-19-.8z" fill="currentColor" /></symbol>

  <symbol id="icon-fa-logout" xmlns="http://www.w3.org/2000/svg" viewBox="0 0 512 512"><!--! Font Awesome Pro 6.2.0 by @fontawesome - https://fontawesome.com License - https://fontawesome.com/license (Commercial License) Copyright 2022 Fonticons, Inc. --><path d="M160 96c17.7 0 32-14.3 32-32s-14.3-32-32-32H96C43 32 0 75 0 128V384c0 53 43 96 96 96h64c17.7 0 32-14.3 32-32s-14.3-32-32-32H96c-17.7 0-32-14.3-32-32l0-256c0-17.7 14.3-32 32-32h64zM504.5 273.4c4.8-4.5 7.5-10.8 7.5-17.4s-2.7-12.9-7.5-17.4l-144-136c-7-6.6-17.2-8.4-26-4.6s-14.5 12.5-14.5 22v72H192c-17.7 0-32 14.3-32 32l0 64c0 17.7 14.3 32 32 32H320v72c0 9.6 5.7 18.2 14.5 22s19 2 26-4.6l144-136z" fill="currentColor" /></symbol>

  <symbol id="icon-fa-login" xmlns="http://www.w3.org/2000/svg" viewBox="0 0 512 512"><!--! Font Awesome Pro 6.2.0 by @fontawesome - https://fontawesome.com License - https://fontawesome.com/license (Commercial License) Copyright 2022 Fonticons, Inc. --><path d="M352 96h64c17.7 0 32 14.3 32 32V384c0 17.7-14.3 32-32 32H352c-17.7 0-32 14.3-32 32s14.3 32 32 32h64c53 0 96-43 96-96V128c0-53-43-96-96-96H352c-17.7 0-32 14.3-32 32s14.3 32 32 32zm-7.5 177.4c4.8-4.5 7.5-10.8 7.5-17.4s-2.7-12.9-7.5-17.4l-144-136c-7-6.6-17.2-8.4-26-4.6s-14.5 12.5-14.5 22v72H32c-17.7 0-32 14.3-32 32v64c0 17.7 14.3 32 32 32H160v72c0 9.6 5.7 18.2 14.5 22s19 2 26-4.6l144-136z" fill="currentColor" /></symbol>

  <symbol id="icon-fa-bell" viewBox="0 0 448 512"><!--! Font Awesome Pro 6.2.0 by @fontawesome - https://fontawesome.com License - https://fontawesome.com/license (Commercial License) Copyright 2022 Fonticons, Inc. --><path d="M224 0c-17.7 0-32 14.3-32 32V51.2C119 66 64 130.6 64 208v18.8c0 47-17.3 92.4-48.5 127.6l-7.4 8.3c-8.4 9.4-10.4 22.9-5.3 34.4S19.4 416 32 416H416c12.6 0 24-7.4 29.2-18.9s3.1-25-5.3-34.4l-7.4-8.3C401.3 319.2 384 273.9 384 226.8V208c0-77.4-55-142-128-156.8V32c0-17.7-14.3-32-32-32zm45.3 493.3c12-12 18.7-28.3 18.7-45.3H224 160c0 17 6.7 33.3 18.7 45.3s28.3 18.7 45.3 18.7s33.3-6.7 45.3-18.7z" fill="currentColor" /></symbol>

  <symbol id="icon-line-height" viewBox="0 0 24 24" xmlns="http://www.w3.org/2000/svg" fill="none"><!--! Majesticons: https://www.svgrepo.com/svg/376554/line-height-line --><path stroke="currentColor" stroke-linecap="round" stroke-linejoin="round" stroke-width="2" d="M6 10V5m0 0L4 7m2-2 2 2m-2 7v5m0 0 2-2m-2 2-2-2m8-10h8m0 5h-8m0 5h8"/></symbol>

  <symbol id="icon-font-settings" viewBox="0 0 24 24" xmlns="http://www.w3.org/2000/svg" fill="currentColor"><!--! Fontsio: https://www.svgrepo.com/svg/394164/font--><path stroke="currentColor" d="m22.106 0h-20.211c-1.047 0-1.895.849-1.895 1.895v4.924c0 .016-.001.034-.001.053 0 1.047.849 1.895 1.895 1.895s1.895-.849 1.895-1.895c0-.019 0-.037-.001-.056v.003-3.03h6.315v16.422h-2.925c-1.024.03-1.842.867-1.842 1.895s.819 1.865 1.84 1.895h.003 9.642c1.024-.03 1.842-.867 1.842-1.895s-.819-1.865-1.84-1.895h-.003-2.926v-16.422h6.315v3.03c.03 1.024.867 1.842 1.895 1.842s1.865-.819 1.895-1.84v-.003-4.924c0-1.046-.848-1.895-1.894-1.895z"/></symbol>

  <symbol id="icon-collapse" viewBox="0 0 24 24" xmlns="http://www.w3.org/2000/svg" fill="none"><!--! Majesticons: https://www.svgrepo.com/svg/376371/arrows-collapse-full-line --><path stroke="currentColor" stroke-linecap="round" stroke-linejoin="round" stroke-width="2" d="M19 15h-4m0 0v4m0-4 4 4M5 9h4m0 0V5m0 4L5 5m14 4h-4m0 0V5m0 4 4-4M5 15h4m0 0v4m0-4-4 4"/></symbol>

  <symbol id="icon-expand" viewBox="0 0 24 24" xmlns="http://www.w3.org/2000/svg" fill="none"><!--! Majesticons: https://www.svgrepo.com/svg/376373/arrows-expand-full-line --><path stroke="currentColor" stroke-linecap="round" stroke-linejoin="round" stroke-width="2" d="M15 19h4m0 0v-4m0 4-4-4M9 5H5m0 0v4m0-4 4 4m6-4h4m0 0v4m0-4-4 4M9 19H5m0 0v-4m0 4 4-4"/></symbol>

  <symbol id="icon-note-filled" viewBox="0 0 24 24" version="1.1" xmlns="http://www.w3.org/2000/svg"><!--! Fluent Ui: https://www.svgrepo.com/svg/311022/note --><g stroke="none" stroke-width="1" fill="none" fill-rule="evenodd"><g id="ic_fluent_note_24_filled" fill="currentColor" fill-rule="nonzero"><path d="M17.75,3 C19.5449254,3 21,4.45507456 21,6.25 L21,13 L16.25,13 C14.4550746,13 13,14.4550746 13,16.25 L13,21 L6.25,21 C4.45507456,21 3,19.5449254 3,17.75 L3,6.25 C3,4.45507456 4.45507456,3 6.25,3 L17.75,3 Z M20.56,14.5 L14.5,20.56 L14.5,16.25 C14.5,15.2835017 15.2835017,14.5 16.25,14.5 L20.56,14.5 Z" id="🎨-Color"></path></g></g></symbol>

  <symbol id="icon-fa-square" xmlns="http://www.w3.org/2000/svg" viewBox="0 0 448 512"><!--! Font Awesome Pro 6.2.0 by @fontawesome - https://fontawesome.com License - https://fontawesome.com/license (Commercial License) Copyright 2022 Fonticons, Inc. --><path d="M0 96C0 60.7 28.7 32 64 32H384c35.3 0 64 28.7 64 64V416c0 35.3-28.7 64-64 64H64c-35.3 0-64-28.7-64-64V96z" fill="currentColor" /></symbol>

  <symbol id="icon-fa-plus" xmlns="http://www.w3.org/2000/svg" viewBox="0 0 448 512"><!--! Font Awesome Pro 6.2.0 by @fontawesome - https://fontawesome.com License - https://fontawesome.com/license (Commercial License) Copyright 2022 Fonticons, Inc. --><path d="M256 80c0-17.7-14.3-32-32-32s-32 14.3-32 32V224H48c-17.7 0-32 14.3-32 32s14.3 32 32 32H192V432c0 17.7 14.3 32 32 32s32-14.3 32-32V288H400c17.7 0 32-14.3 32-32s-14.3-32-32-32H256V80z" fill="currentColor" /></symbol>

  <symbol id="icon-fa-minus" xmlns="http://www.w3.org/2000/svg" viewBox="0 0 448 512"><!--! Font Awesome Pro 6.2.0 by @fontawesome - https://fontawesome.com License - https://fontawesome.com/license (Commercial License) Copyright 2022 Fonticons, Inc. --><path d="M432 256c0 17.7-14.3 32-32 32L48 288c-17.7 0-32-14.3-32-32s14.3-32 32-32l352 0c17.7 0 32 14.3 32 32z" fill="currentColor" /></symbol>

  <symbol id="icon-fa-xmark" xmlns="http://www.w3.org/2000/svg" viewBox="0 0 320 512"><!--! Font Awesome Pro 6.2.0 by @fontawesome - https://fontawesome.com License - https://fontawesome.com/license (Commercial License) Copyright 2022 Fonticons, Inc. --><path d="M310.6 150.6c12.5-12.5 12.5-32.8 0-45.3s-32.8-12.5-45.3 0L160 210.7 54.6 105.4c-12.5-12.5-32.8-12.5-45.3 0s-12.5 32.8 0 45.3L114.7 256 9.4 361.4c-12.5 12.5-12.5 32.8 0 45.3s32.8 12.5 45.3 0L160 301.3 265.4 406.6c12.5 12.5 32.8 12.5 45.3 0s12.5-32.8 0-45.3L205.3 256 310.6 150.6z" fill="currentColor" /></symbol>

  <svg id="icon-sticky-pin" xmlns="http://www.w3.org/2000/svg" viewBox="0 0 384 512"><!--! Font Awesome Pro 6.2.1 by @fontawesome - https://fontawesome.com License - https://fontawesome.com/license (Commercial License) Copyright 2022 Fonticons, Inc. --><path fill="currentColor" d="M32 32C32 14.3 46.3 0 64 0H320c17.7 0 32 14.3 32 32s-14.3 32-32 32H290.5l11.4 148.2c36.7 19.9 65.7 53.2 79.5 94.7l1 3c3.3 9.8 1.6 20.5-4.4 28.8s-15.7 13.3-26 13.3H32c-10.3 0-19.9-4.9-26-13.3s-7.7-19.1-4.4-28.8l1-3c13.8-41.5 42.8-74.8 79.5-94.7L93.5 64H64C46.3 64 32 49.7 32 32zM160 384h64v96c0 17.7-14.3 32-32 32s-32-14.3-32-32V384z"/></svg>
</svg>
