<svg height="406.00739" viewBox="0 0 329.77792 406.00738" width="329.77792" xmlns="http://www.w3.org/2000/svg" xmlns:xlink="http://www.w3.org/1999/xlink"><linearGradient id="a" gradientUnits="userSpaceOnUse" x1="614.811697" x2="613.203177" y1="6.95311" y2="109.130033"><stop offset="0" stop-color="#c2c2c2"/><stop offset="1" stop-color="#9f9f9f"/></linearGradient><g transform="translate(-399.13437 -122.79051)"><rect fill="#eee" height="406.00739" ry="7.013614" width="329.77792" x="399.13437" y="122.79051"/><rect fill="#9f9f9f" height="90.470001" ry="8.397025" transform="matrix(.95959526 -.28138397 .28138397 .95959526 43.778173 191.04163)" width="82.489967" x="398.75827" y="178.74706"/><g stroke="#fff" stroke-linecap="round" stroke-linejoin="round" transform="matrix(.95970467 .28101059 -.28101059 .95970467 13.504436 32.369323)"><rect fill="url(#a)" height="115.96551" ry="4.596194" stroke-width="5.398" width="107.83378" x="547.18585" y="1.649809"/><g fill-rule="evenodd" stroke-width="13.0708" transform="matrix(.17265471 0 0 .17265471 512.49324 -6.329646)"><path d="m270 107.36227h491.10556v449.99814h-491.10556z" fill="#ccc"/><path d="m270 107.36227h491.10559v209.99976h-491.10559z" fill="#fff"/><path d="m300 317.36255 38.46147-53.53818 60.53097-45.16084 15.88277 18.57394 13.61285-38.68356 8.20133-2.98188 13.3106-28.2093 180 179.99979" fill="#ccc"/><path d="m180 60c4.09311 16.474688 7.71219 33.067277 10.85156 49.75 2.38256 12.66097 4.48857 25.37408 6.31641 38.12695l-22.06445-7.16015-46.11133-29.41602 5.32422 46.42578-1.61524 24.78711 10.05274 30.37695 73.18554-11.75585 84.06055-21.13477-47.80078-77.43359-9.69922 14.93359-27.125-22.125z" fill="#b3b3b3" transform="translate(270 107.36227)"/><path d="m419.99999 347.36252 81.89918-74.42959 18.50574-9.68009 23.6512-44.18894 25.94388-21.70121 179.99999 179.99979" fill="#ccc"/><path d="m569.99999 197.36269 35.9388 80.91289v30.11038 30.11038l22.45864 19.46652c6.52453-6.45031 14.14893-11.78526 22.44431-15.70477 14.8245-7.00447 31.33823-9.35959 47.17057-13.6217 6.42776-1.73037 12.90672-3.85419 18.21343-7.87277 1.35174-1.02362 2.61592-2.16281 3.77424-3.40107h-30l-40.52149-40.55006-29.85645-48.91972-10.25307 8.83886z" fill="#b3b3b3"/><path d="m419.99999 557.36227c-.41699-9.60089-8.81759-17.60878 17.1252-30.66806 31.8318-16.02389 125.895-35.88836 152.1537-59.98434 19.42709-17.82687-70.4154-37.66945-55.0191-59.07323 6.981-9.70528 59.037-19.96947 82.1463-30.27386 21.90569-9.76799 15.14129-19.80328 31.4046-29.97507 15.7092-9.82558 68.3499-19.77358 72.18929-30.02516-10.41359 10.52188-68.83379 20.40327-89.99999 30.00026-22.3377 10.128-21.4689 19.93018-49.4313 29.48367-30.1245 10.29239-89.142 20.55268-102.7077 30.51626-28.4133 20.86858 46.863 42.59995 16.2024 59.99993-41.5203 23.56287-149.34149 43.29445-194.06339 59.99993-30.9039 11.54369-28.4079 17.74799-30 29.99967" fill="#fff"/></g></g><text fill="#767676" font-family="sans-serif" font-size="32" x="562.00677" y="412.12527"><tspan font-family="sans-serif" font-size="32" font-weight="bold" text-anchor="middle" x="562.00677" y="412.12527">NO IMAGE</tspan><tspan font-family="sans-serif" font-size="32" font-weight="bold" text-anchor="middle" x="562.00677" y="452.12527">AVAILABLE</tspan></text></g></svg>